<?xml version="1.0" standalone="no"?>
<!DOCTYPE svg PUBLIC "-//W3C//DTD SVG 20010904//EN"
 "http://www.w3.org/TR/2001/REC-SVG-20010904/DTD/svg10.dtd">
<svg version="1.0" xmlns="http://www.w3.org/2000/svg"
 width="200.000000pt" height="200.000000pt" viewBox="0 0 200.000000 200.000000"
 preserveAspectRatio="xMidYMid meet">
<metadata>
Created by potrace 1.14, written by Peter Selinger 2001-2017
</metadata>
<g transform="translate(0.000000,200.000000) scale(0.100000,-0.100000)"
fill="#000000" stroke="none">
<path d="M796 1257 c-60 -34 -78 -66 -81 -138 -3 -52 -7 -65 -26 -80 -30 -23
-32 -23 -47 2 -12 19 -11 24 13 49 49 52 33 134 -32 165 -52 25 -392 18 -443
-9 -99 -52 -149 -119 -157 -213 -10 -112 39 -204 136 -255 48 -25 63 -28 158
-28 l105 0 37 -41 c93 -104 221 -34 221 122 0 42 2 49 14 40 7 -6 16 -35 19
-63 11 -91 67 -143 152 -143 83 0 143 54 152 139 l6 46 48 0 c37 0 54 6 78 26
26 21 31 23 31 9 0 -32 42 -93 77 -112 19 -10 43 -33 53 -51 44 -73 139 -79
201 -11 l36 39 141 0 c77 0 153 5 169 11 38 14 83 57 99 96 30 69 4 181 -50
217 -18 11 -24 27 -28 66 -6 59 -29 89 -94 119 -38 18 -63 21 -202 21 -138 0
-164 -3 -200 -20 l-41 -20 -36 20 c-33 18 -54 20 -253 20 -206 0 -219 -1 -256
-23z m-155 -36 c46 -47 33 -119 -27 -141 l-23 -9 29 -30 c17 -16 30 -37 30
-45 0 -22 3 -21 43 19 32 32 35 40 39 105 3 60 8 74 31 98 l27 27 251 3 c215
3 254 1 275 -13 22 -14 27 -14 54 0 23 12 68 15 217 15 171 0 191 -2 221 -20
38 -23 66 -81 59 -119 -4 -20 3 -32 35 -61 65 -58 72 -154 17 -224 -39 -50
-65 -56 -233 -56 l-155 0 -16 -30 c-18 -35 -62 -60 -104 -60 -33 0 -86 39 -96
70 -4 11 -17 23 -30 26 -44 11 -78 59 -82 116 -5 65 19 110 72 135 22 11 35
24 35 36 0 13 -5 17 -16 13 -9 -3 -90 -6 -180 -6 -139 0 -164 -2 -164 -15 0
-12 16 -15 88 -15 81 0 91 -2 111 -24 31 -33 31 -89 1 -121 -18 -19 -35 -25
-84 -27 l-61 -3 -5 -50 c-7 -62 -22 -91 -63 -115 -91 -56 -207 9 -207 116 0
34 -6 48 -34 76 l-34 34 -4 -94 c-3 -91 -4 -94 -36 -123 -54 -49 -147 -31
-167 31 -6 18 -16 20 -93 20 -118 0 -154 7 -214 44 -169 103 -140 361 50 431
26 10 92 14 225 14 l189 1 29 -29z m644 -171 c-3 -5 -12 -10 -20 -10 -7 0 -27
-16 -44 -35 -17 -20 -31 -31 -31 -26 0 6 -14 26 -31 46 l-31 35 82 0 c51 0 79
-4 75 -10z"/>
<path d="M216 1195 c-47 -16 -103 -69 -122 -112 -28 -65 -11 -158 39 -211 45
-48 74 -57 216 -62 l135 -5 8 -33 c17 -63 95 -67 119 -5 6 16 9 70 7 121 -3
91 -4 94 -36 123 -43 39 -76 37 -118 -5 -26 -26 -34 -42 -34 -70 l0 -36 -85 0
c-91 0 -136 14 -155 49 -15 30 -12 94 6 120 30 43 71 51 248 51 153 0 166 1
176 19 12 24 4 48 -21 61 -28 16 -337 12 -383 -5z"/>
<path d="M813 1200 c-26 -10 -32 -29 -37 -120 -4 -59 -7 -66 -33 -81 -46 -25
-40 -89 8 -89 16 0 19 -8 19 -49 0 -70 16 -107 55 -125 46 -22 60 -20 96 12
27 25 33 37 38 93 l6 64 70 3 c38 2 75 8 82 14 17 13 17 54 1 65 -7 4 -58 10
-113 13 l-100 5 -3 43 c-5 71 -3 72 202 72 128 0 186 4 194 12 18 18 14 56 -7
68 -24 12 -446 13 -478 0z"/>
<path d="M1388 1190 c-25 -19 -27 -28 -30 -102 l-3 -81 -34 -12 c-40 -13 -81
-58 -81 -88 0 -40 36 -85 73 -92 26 -5 35 -13 43 -38 5 -18 21 -38 36 -47 25
-13 29 -13 55 6 15 11 30 32 33 45 6 24 6 24 180 29 146 4 179 8 201 23 36 24
53 68 46 118 -6 46 -26 72 -67 89 -27 11 -28 14 -23 63 5 47 2 54 -22 77 -26
24 -31 25 -204 28 -167 3 -178 2 -203 -18z m284 -92 c12 -32 -4 -38 -92 -38
-89 0 -107 7 -96 35 7 20 181 22 188 3z m53 -163 c0 -19 -8 -20 -114 -23 -116
-3 -139 3 -128 33 6 13 24 15 124 13 110 -3 118 -4 118 -23z"/>
<path d="M240 1050 c-52 -52 -4 -110 91 -110 l58 0 7 35 c3 20 20 49 36 65
l30 30 -101 0 c-88 0 -104 -3 -121 -20z m156 -29 c-9 -16 -16 -37 -16 -46 0
-12 -12 -15 -58 -15 -32 0 -63 5 -70 12 -16 16 -15 53 1 66 10 9 142 22 155
15 2 0 -4 -15 -12 -32z"/>
</g>
</svg>
